<?xml version="1.0" encoding="UTF-8"?>
<svg id="OBJECTS" xmlns="http://www.w3.org/2000/svg" viewBox="0 0 277.58 187.99">
  <defs>
    <style>
      .cls-1 {
        fill: #243159;
        stroke-width: 0px;
      }
    </style>
  </defs>
  <path class="cls-1" d="m137.54,31.34h-57.31l1.41-.89,1.52-.96,1.51-.96,24.21-15.26,8.31,5.24.52.33.52.33,19.3,12.18Zm108.17,74.45v63.41h3.72v6.97H46.03v-6.97h3.72v-63.41h0c-.12,0-.24-.06-.34-.15l-9.35-9.77c-.13-.13-.16-.34-.09-.5.07-.18.24-.28.43-.28h2.28l18.5-3.78v-47.29h-9.51v-4.28h-.21c-.23,0-.43-.17-.47-.39-.03-.23.1-.45.33-.52l16.15-4.98L108.88,7.71l14.22,8.97,24.49-7.55c.09-.03.19-.03.27,0l96.27,29.68c.22.07.36.29.33.52-.04.22-.23.39-.46.39h-.21v4.28h-9.52v45.95l6.22,2.61h.02s12.26,2.51,12.26,2.51h2.28c.19,0,.35.1.43.28.07.17.04.37-.09.5l-9.35,9.77c-.08.09-.21.15-.34.15h0Zm-1.63-10.7l-8.31-3.48-1.5-.63-.93-.39-26.36-11.03-7.61-3.19-7.61,3.19-10.81,4.52-26.29,11h89.42Zm-202.56.93l8.45,8.83h195.55l8.45-8.83H41.51Zm20.62,9.77v63.41h93.75v-63.41H62.13Zm145.75,54.07v-41.87h-17.04v41.87h17.04Zm-26.43,3.08v5.79h35.82v-5.79h-35.82Zm51.88,6.26v-63.41h-71.31v63.41h18.5v-7.19h7.53v-46.81h22.64v46.81h7.52v7.19h15.12ZM69.39,33.74l-1.52.95-.64.4h83.31l-27.57-17.39-.53-.33-.51-.33-13.04-8.22-37.98,23.95-1.51.96Zm-16.78,9.34h190.24v-3.35H52.61v3.35Zm9.51,48.03l34.35-7.03h82.04l8.81-3.68h-4.24v-14.59h6.53v13.63l2.14-.89v-11.94h15.21v11.94l2.14.89v-13.64h6.53v14.59h-4.25l21.94,9.18v-45.57H62.13v47.1Zm-6.23,78.08h5.29v-63.41h-5.29v63.41Zm183.66-63.41h-5.3v63.41h5.3v-63.41Zm-46.68,18.33h3.65v-3.65h-3.65v3.65Zm4.65,0h3.65v-3.65h-3.65v3.65Zm4.65,0h3.65v-3.65h-3.65v3.65Zm-9.31,4.93h3.65v-3.65h-3.65v3.65Zm4.65,0h3.65v-3.65h-3.65v3.65Zm4.65,0h3.65v-3.65h-3.65v3.65Zm-122.6-64.59h6.53v-14.59h-6.53v14.59Zm0,15.95h6.53v-14.59h-6.53v14.59Zm58.58-30.54h-6.53v14.59h6.53v-14.59Zm0,15.95h-6.53v14.59h6.53v-14.59Zm-45.38-15.17h-4.25v6.1h4.25v-6.1Zm5.47,0h-4.25v6.1h4.25v-6.1Zm-5.47,6.92h-4.25v6.1h4.25v-6.1Zm5.47,0h-4.25v6.1h4.25v-6.1Zm-.03,9.04h-9.72v13.03h9.72v-13.03Zm7.32-15.96h-4.25v6.1h4.25v-6.1Zm0,6.92h-4.25v6.1h4.25v-6.1Zm5.47-6.92h-4.25v6.1h4.25v-6.1Zm0,6.92h-4.25v6.1h4.25v-6.1Zm5.47-6.92h-4.25v6.1h4.25v-6.1Zm0,6.92h-4.25v6.1h4.25v-6.1Zm0,9.04h-15.22v13.03h15.22v-13.03Zm7.29-15.96h-4.25v6.1h4.25v-6.1Zm5.47,0h-4.25v6.1h4.25v-6.1Zm-5.47,6.92h-4.25v6.1h4.25v-6.1Zm5.47,0h-4.25v6.1h4.25v-6.1Zm-.03,9.04h-9.72v13.03h9.72v-13.03Zm66.81-15.96h-4.25v6.1h4.25v-6.1Zm0,6.92h-4.25v6.1h4.25v-6.1Zm5.47-6.92h-4.25v6.1h4.25v-6.1Zm0,6.92h-4.25v6.1h4.25v-6.1Zm5.47-6.92h-4.25v6.1h4.25v-6.1Zm0,6.92h-4.25v6.1h4.25v-6.1Zm-17.35-7.71h-6.53v14.59h6.53v-14.59Zm26.02,0h-6.53v14.59h6.53v-14.59Zm-15.92,29.77l-.36-.15-.36.15-10.65,4.46-20.13,8.42h62.29l-9.22-3.86-21.57-9.02Zm-116.82,33.53h-6.53v31.14h6.53v-31.14Zm6.19,1.14h-3.7v14.05h3.7v-14.05Zm4.9,0h-3.7v14.05h3.7v-14.05Zm0,16.01h-8.6v12.85h8.6v-12.85Zm47.42-17.15h-6.53v31.14h6.53v-31.14Zm-9.02,1.14h-3.7v14.05h3.7v-14.05Zm-4.9,0h-3.7v14.05h3.7v-14.05Zm4.9,16.01h-8.6v12.85h8.6v-12.85Zm-31.99-16.01h-3.92v7.02h3.92v-7.02Zm5.23,0h-3.92v7.02h3.92v-7.02Zm5.23,0h-3.92v7.02h3.92v-7.02Zm5.23,0h-3.92v7.02h3.92v-7.02Zm5.23,0h-3.92v7.02h3.92v-7.02Zm0,8.87h-24.83v19.98h24.83v-19.98Zm26.8,25.13h-78.42v2.93h78.42v-2.93Zm0,6.35h-78.42v2.93h78.42v-2.93Zm0,9.28v-2.93h-78.42v2.93h78.42Zm21.71-36.71h12.03v-12.03h-12.03v12.03Zm47.09-12.03v12.03h12.03v-12.03h-12.03Z"/>
  <g>
    <g>
      <path class="cls-1" d="m258.17,165.57c-.58,8.28,2.45,8.3,3.2,4.84.35-1.62.87-18.23-.69-17.61-2.19.87-1.67.88-2.5,12.77Z"/>
      <path class="cls-1" d="m248.57,131.14c-.24-6.75,4.12-6.23,3.76-8.61-1.63-10.76,7.41-26,8.79-23.98,6.84,10.02,4.85,18.02,5.91,20.55.94,2.26,3.85,3.35,3.82,9.73-.02,3.9-1.27,7.59-1.07,8.74.16.9,3.37,6.08-.07,12.14-5.93,10.44-20.01,12.74-21.12-18.56Z"/>
    </g>
    <g>
      <path class="cls-1" d="m37.29,165.57c.58,8.28-2.45,8.3-3.2,4.84-.35-1.62-.87-18.23.69-17.61,2.19.87,1.67.88,2.5,12.77Z"/>
      <path class="cls-1" d="m46.89,131.14c.24-6.75-4.12-6.23-3.76-8.61,1.63-10.76-7.41-26-8.79-23.98-6.84,10.02-4.85,18.02-5.91,20.55-.94,2.26-3.85,3.35-3.82,9.73.02,3.9,1.27,7.59,1.07,8.74-.16.9-3.37,6.08.07,12.14,5.93,10.44,20.01,12.74,21.12-18.56Z"/>
    </g>
  </g>
  <g>
    <path class="cls-1" d="m271.36,174.39c.22.04,1.04-.92,1.1-1.11.21-.71-1.01-.92-1.5-1.4.55-.26,2.33-1.19,1.68-1.99-.44-.55-1.69.02-2.34-.07.68-.63,1.55-1.05,1.51-2.15-.04-.92-1.65-1.4-1.83-.49,0-.48.18-1.18-.14-1.59-.19-.25-1.56-.52-1.57-.2.03-1.08-1.25-1.97-2.26-1.57.21-.76-.75-2.46-3.49-.58.52-.36.12-1.59-.07-2.02-.6-1.34-1.01-.59-1.71.12-.26-.3-2.72-1.97-2.64-.43-.04-.63-.21-1.49-.64-1.98-.7-.78-1.09-.28-1.7.2-.8.62-1.4-.51-1.99-.83-.57-.31-.74.2-1.1.52-1.34,1.21-1.88-1.07-3.11.61-1.27,1.73-1.78-1.29-2.63,1.16-.44,1.26-1.8,1.05-3.05.58-2.2-.82-.52,1.51-1.3,2.35-.51.54-1.67-.38-2.21-.45-1.24-.18-.78,1.65-.95,2.5-4-.53-.31,1.47-1.76,2.73-.49.42-1.81-.15-1.84.91-.02.7.98,1.19.65,2.08-.26.7-1.24.14-1.5,1.35-.05.22,1.55,4.08,4.03,5.65,4.59,2.89,17.81,1.78,28.11,1.08,1.2-.08,3.31-.92,4.51-1.41.94-.38.02-.8-.62-.96.31.08,3.43-2.03.38-2.61Z"/>
    <path class="cls-1" d="m24.1,174.39c-.22.04-1.04-.92-1.1-1.11-.21-.71,1.01-.92,1.5-1.4-.55-.26-2.33-1.19-1.68-1.99.44-.55,1.69.02,2.34-.07-.68-.63-1.55-1.05-1.51-2.15.04-.92,1.65-1.4,1.83-.49,0-.48-.18-1.18.14-1.59.19-.25,1.56-.52,1.57-.2-.03-1.08,1.25-1.97,2.26-1.57-.21-.76.75-2.46,3.49-.58-.52-.36-.12-1.59.07-2.02.6-1.34,1.01-.59,1.71.12.26-.3,2.72-1.97,2.64-.43.04-.63.21-1.49.64-1.98.7-.78,1.09-.28,1.7.2.8.62,1.4-.51,1.99-.83.57-.31.74.2,1.1.52,1.34,1.21,1.88-1.07,3.11.61,1.27,1.73,1.78-1.29,2.63,1.16.44,1.26,1.8,1.05,3.05.58,2.2-.82.52,1.51,1.3,2.35.51.54,1.67-.38,2.21-.45,1.24-.18.78,1.65.95,2.5,4-.53.31,1.47,1.76,2.73.49.42,1.81-.15,1.84.91.02.7-.98,1.19-.65,2.08.26.7,1.24.14,1.5,1.35.05.22-1.55,4.08-4.03,5.65-4.59,2.89-17.81,1.78-28.11,1.08-1.2-.08-3.31-.92-4.51-1.41-.94-.38-.02-.8.62-.96-.31.08-3.43-2.03-.38-2.61Z"/>
  </g>
</svg>