<?xml version="1.0" encoding="UTF-8"?>
<svg id="houses" xmlns="http://www.w3.org/2000/svg" viewBox="0 0 309.7 192.59">
  <defs>
    <style>
      .cls-1, .cls-2, .cls-3, .cls-4 {
        stroke-width: 0px;
      }

      .cls-2 {
        fill: #fff;
      }

      .cls-3 {
        fill: #ebcaa1;
      }

      .cls-4 {
        fill: #faebd7;
      }
    </style>
  </defs>
  <rect class="cls-4" x="26.19" y="54.81" width="245.97" height="137.78"/>
  <rect class="cls-4" x="140.06" y="29.64" width="100.05" height="162.95"/>
  <path class="cls-4" d="m242.98,29.64h-107.36c-1.39-3.71-2.79-7.42-4.18-11.14h115.46c-1.31,3.71-2.61,7.42-3.92,11.14Z"/>
  <path class="cls-4" d="m130.14,61.51H22.78c-1.39-3.71-2.79-7.42-4.18-11.14h115.46c-1.31,3.71-2.61,7.42-3.92,11.14Z"/>
  <path class="cls-4" d="m215.3,61.51h-107.36c-1.39-3.71-2.79-7.42-4.18-11.14h115.46c-1.31,3.71-2.61,7.42-3.92,11.14Z"/>
  <path class="cls-4" d="m279.03,61.51h-107.36c-1.39-3.71-2.79-7.42-4.18-11.14h115.46c-1.31,3.71-2.61,7.42-3.92,11.14Z"/>
  <g>
    <polygon class="cls-3" points="56.31 192.5 55.97 135.23 36.77 135.23 36.77 192.5 56.31 192.5"/>
    <path class="cls-3" d="m36.77,135.23c-.38-9.84,5.68-16.43,9.99-16.32,4.24.11,9.79,6.79,9.21,16.32"/>
  </g>
  <g>
    <g>
      <polygon class="cls-3" points="44.74 103.07 44.6 78.71 36.71 78.71 36.71 103.07 44.74 103.07"/>
      <path class="cls-3" d="m36.71,78.71c-.16-4.19,2.33-6.99,4.11-6.94,1.74.05,4.02,2.89,3.78,6.94"/>
    </g>
    <g>
      <polygon class="cls-3" points="54.51 103.04 54.37 78.68 46.48 78.68 46.48 103.04 54.51 103.04"/>
      <path class="cls-3" d="m46.48,78.68c-.16-4.19,2.33-6.99,4.11-6.94,1.74.05,4.02,2.89,3.78,6.94"/>
    </g>
  </g>
  <g>
    <g>
      <polygon class="cls-3" points="75.31 103.07 75.17 78.71 67.28 78.71 67.28 103.07 75.31 103.07"/>
      <path class="cls-3" d="m67.28,78.71c-.16-4.19,2.33-6.99,4.11-6.94,1.74.05,4.02,2.89,3.78,6.94"/>
    </g>
    <g>
      <polygon class="cls-3" points="85.08 103.04 84.94 78.68 77.05 78.68 77.05 103.04 85.08 103.04"/>
      <path class="cls-3" d="m77.05,78.68c-.16-4.19,2.33-6.99,4.11-6.94,1.74.05,4.02,2.89,3.78,6.94"/>
    </g>
  </g>
  <g>
    <g>
      <polygon class="cls-3" points="102.74 103.07 102.6 78.71 94.71 78.71 94.71 103.07 102.74 103.07"/>
      <path class="cls-3" d="m94.71,78.71c-.16-4.19,2.33-6.99,4.11-6.94,1.74.05,4.02,2.89,3.78,6.94"/>
    </g>
    <g>
      <polygon class="cls-3" points="112.51 103.04 112.37 78.68 104.48 78.68 104.48 103.04 112.51 103.04"/>
      <path class="cls-3" d="m104.48,78.68c-.16-4.19,2.33-6.99,4.11-6.94,1.74.05,4.02,2.89,3.78,6.94"/>
    </g>
  </g>
  <g>
    <g>
      <polygon class="cls-3" points="130.59 103.07 130.45 78.71 122.56 78.71 122.56 103.07 130.59 103.07"/>
      <path class="cls-3" d="m122.56,78.71c-.16-4.19,2.33-6.99,4.11-6.94,1.74.05,4.02,2.89,3.78,6.94"/>
    </g>
    <g>
      <polygon class="cls-3" points="140.36 103.04 140.22 78.68 132.33 78.68 132.33 103.04 140.36 103.04"/>
      <path class="cls-3" d="m132.33,78.68c-.16-4.19,2.33-6.99,4.11-6.94,1.74.05,4.02,2.89,3.78,6.94"/>
    </g>
  </g>
  <g>
    <g>
      <polygon class="cls-3" points="248.88 103.07 248.74 78.71 240.85 78.71 240.85 103.07 248.88 103.07"/>
      <path class="cls-3" d="m240.85,78.71c-.16-4.19,2.33-6.99,4.11-6.94,1.74.05,4.02,2.89,3.78,6.94"/>
    </g>
    <g>
      <polygon class="cls-3" points="258.65 103.04 258.51 78.68 250.62 78.68 250.62 103.04 258.65 103.04"/>
      <path class="cls-3" d="m250.62,78.68c-.16-4.19,2.33-6.99,4.11-6.94,1.74.05,4.02,2.89,3.78,6.94"/>
    </g>
  </g>
  <g>
    <polygon class="cls-3" points="86.11 192.5 85.77 135.23 66.57 135.23 66.57 192.5 86.11 192.5"/>
    <path class="cls-3" d="m66.57,135.23c-.38-9.84,5.68-16.43,9.99-16.32,4.24.11,9.79,6.79,9.21,16.32"/>
  </g>
  <g>
    <polygon class="cls-3" points="113.54 192.5 113.19 135.23 94 135.23 94 192.5 113.54 192.5"/>
    <path class="cls-3" d="m94,135.23c-.38-9.84,5.68-16.43,9.99-16.32,4.24.11,9.79,6.79,9.21,16.32"/>
  </g>
  <g>
    <polygon class="cls-3" points="141.23 192.5 140.88 135.23 121.68 135.23 121.68 192.5 141.23 192.5"/>
    <path class="cls-3" d="m121.68,135.23c-.38-9.84,5.68-16.43,9.99-16.32,4.24.11,9.79,6.79,9.21,16.32"/>
  </g>
  <g>
    <polygon class="cls-3" points="259.68 192.5 259.34 135.23 240.14 135.23 240.14 192.5 259.68 192.5"/>
    <path class="cls-3" d="m240.14,135.23c-.38-9.84,5.68-16.43,9.99-16.32,4.24.11,9.79,6.79,9.21,16.32"/>
  </g>
  <g>
    <path class="cls-3" d="m166.92,84.27c-2.37-22.18,11.84-38.69,23.61-38.47,11.59.21,25.14,16.73,22.68,38.47"/>
    <rect class="cls-3" x="166.92" y="84.27" width="46.59" height="40.81"/>
  </g>
  <rect class="cls-2" x="145.81" y="120.95" width="89.73" height="20.34"/>
  <rect class="cls-1" x="155.49" y="151.61" width="70.37" height="40.98"/>
</svg>