<?xml version="1.0" encoding="UTF-8"?>
<svg id="houses" xmlns="http://www.w3.org/2000/svg" viewBox="0 0 309.7 192.59">
  <defs>
    <style>
      .cls-1g {
        fill: #634d40;
        stroke: #634d40;
        stroke-miterlimit: 10;
      }

      .cls-2g {
        fill: #9b8f84;
      }

      .cls-2g, .cls-3g, .cls-4g {
        stroke-width: 0px;
      }

      .cls-3g {
        fill: #c2b5a8;
      }

      .cls-4g {
        fill: #97c579;
      }
    </style>
  </defs>
  <rect class="cls-4g" x="103.63" y="144.75" width="206.08" height="14.82"/>
  <rect class="cls-2g" x="223.83" y="93.89" width="7.93" height="56.65"/>
  <rect class="cls-2g" x="221.86" y="129.93" width="12.17" height="20.61"/>
  <rect class="cls-3g" y="159.58" width="309.7" height="33.85"/>
  <path class="cls-3g" d="m165.81,88.86s43.84-17.19,43.84-39.13,0,39.13,0,39.13h-43.84Z"/>
  <path class="cls-3g" d="m253.5,88.86s-43.84-17.19-43.84-39.13c0-21.93,0,39.13,0,39.13h43.84Z"/>
  <rect class="cls-3g" x="175.41" y="88.86" width="70.43" height="5.03"/>
  <rect class="cls-3g" x="177.7" y="92.44" width="10.03" height="67.14"/>
  <rect class="cls-3g" x="234" y="92.44" width="10.03" height="67.14"/>
  <rect class="cls-2g" x="187.73" y="150.54" width="46.27" height="9.04"/>
  <rect class="cls-3g" x="175.41" y="136.15" width="15.72" height="23.43"/>
  <rect class="cls-3g" x="231.15" y="136.15" width="15.72" height="23.43"/>
  <rect class="cls-2g" x="194.08" y="93.89" width="7.93" height="56.65"/>
  <rect class="cls-2g" x="192.11" y="129.93" width="12.17" height="20.61"/>
  <path class="cls-4g" d="m25.41,128.55c-11.41-6.38-1.36-82.08,34.93-87.41,19.55-2.87,38.7,15.86,47.35,31.05,13.64,23.98,10.73,56.13.78,59.76-9.54,3.48-18.03-21.96-39.88-23.65-22.86-1.77-35.85,24.34-43.16,20.25Z"/>
  <path class="cls-1g" d="m82.96,159.58h-11.06c.59-4.43,1.45-15.71-5.31-26.26-1.97-3.08-4.19-5.48-6.25-7.31-2.54-6.05-5.07-12.11-7.61-18.16.63-5.49,1.27-10.98,1.9-16.47-.03,5.34-.06,10.68-.08,16.02,2.17,4.56,4.34,9.12,6.52,13.69,3.14,2.98,6.29,5.96,9.43,8.94,3.09-6.39,6.82-13.08,11.34-19.87,1.04-1.57,2.09-3.09,3.15-4.56,4.59-1.34,9.18-2.68,13.77-4.02-3.93,1.37-7.87,2.73-11.8,4.1-.81,1.28-1.62,2.56-2.43,3.84,3.62,2.05,7.24,4.1,10.85,6.15-3.71-1.62-7.43-3.25-11.14-4.87-.87,1.43-1.74,2.87-2.61,4.3-.86,2.37-1.72,4.74-2.57,7.11-1.39,2.69-4.68,9.92-3.62,19.48,1.03,9.3,5.59,15.52,7.51,17.88Z"/>
  <rect class="cls-4g" y="144.75" width="49.14" height="14.82"/>
</svg>