<?xml version="1.0" encoding="UTF-8"?>
<svg id="OBJECTS" xmlns="http://www.w3.org/2000/svg" viewBox="0 0 309.94 189.27">
  <defs>
    <style>
      .cls-1 {
        fill: #243159;
        stroke-width: 0px;
      }
    </style>
  </defs>
<g>
<a href="entry-1.html">
  <g>
    <g>
      <path class="cls-1" d="m3.92,169.9c-.31.06-1.5-1.33-1.58-1.61-.3-1.02,1.45-1.33,2.17-2.03-.8-.37-3.36-1.71-2.42-2.87.64-.79,2.45.03,3.38-.09-.98-.91-2.25-1.52-2.18-3.11.06-1.33,2.38-2.02,2.64-.71,0-.69-.26-1.7.2-2.3.27-.36,2.25-.76,2.26-.29-.04-1.56,1.81-2.85,3.26-2.26-.3-1.09,1.08-3.55,5.04-.83-.75-.52-.17-2.29.1-2.91.86-1.93,1.45-.86,2.48.18.38-.44,3.93-2.85,3.81-.62.05-.91.3-2.16.93-2.85,1.02-1.12,1.58-.4,2.46.29,1.15.89,2.03-.74,2.88-1.2.82-.45,1.07.29,1.58.76,1.94,1.75,2.72-1.54,4.49.88,1.83,2.5,2.56-1.86,3.8,1.67.64,1.82,2.6,1.51,4.41.83,3.18-1.19.75,2.19,1.88,3.39.73.78,2.4-.54,3.19-.66,1.79-.26,1.12,2.39,1.37,3.61,5.77-.77.45,2.13,2.55,3.95.71.61,2.62-.22,2.66,1.31.03,1.01-1.41,1.72-.94,3,.37,1.01,1.8.2,2.17,1.95.07.32-2.23,5.89-5.83,8.15-6.63,4.18-25.72,2.57-40.59,1.56-1.73-.12-4.78-1.33-6.52-2.03-1.35-.55-.03-1.16.89-1.39-.45.11-4.95-2.93-.55-3.77Z"/>
      <path class="cls-1" d="m257.35,169.9c-.31.06-1.5-1.33-1.58-1.61-.3-1.02,1.45-1.33,2.17-2.03-.8-.37-3.36-1.71-2.42-2.87.64-.79,2.45.03,3.38-.09-.98-.91-2.25-1.52-2.18-3.11.06-1.33,2.38-2.02,2.64-.71,0-.69-.26-1.7.2-2.3.27-.36,2.25-.76,2.26-.29-.04-1.56,1.81-2.85,3.26-2.26-.3-1.09,1.08-3.55,5.04-.83-.75-.52-.17-2.29.1-2.91.86-1.93,1.45-.86,2.48.18.38-.44,3.93-2.85,3.81-.62.05-.91.3-2.16.93-2.85,1.02-1.12,1.58-.4,2.46.29,1.15.89,2.03-.74,2.88-1.2.82-.45,1.07.29,1.58.76,1.94,1.75,2.72-1.54,4.49.88,1.83,2.5,2.56-1.86,3.8,1.67.64,1.82,2.6,1.51,4.41.83,3.18-1.19.75,2.19,1.88,3.39.73.78,2.4-.54,3.19-.66,1.79-.26,1.12,2.39,1.37,3.61,5.77-.77.45,2.13,2.55,3.95.71.61,2.62-.22,2.66,1.31.03,1.01-1.41,1.72-.94,3,.37,1.01,1.8.2,2.17,1.95.07.32-2.23,5.89-5.83,8.15-6.63,4.18-25.72,2.57-40.59,1.56-1.73-.12-4.78-1.33-6.52-2.03-1.35-.55-.03-1.16.89-1.39-.45.11-4.95-2.93-.55-3.77Z"/>
    </g>
    <path class="cls-1" d="m267.83,60.61h-66.42l-6.03-5.8-5.84,5.8h-120.79l-13.75,30.23h-15.87l-18.4,33.46h-2.94v5.72h9.21v46.45h7.44v-42.33h42.74v42.33h6.6v-18.6h7.49v-23.73h80.31v23.73h7.49v18.6h38.62v-18.6h65.65v18.6h3.03v-47.16l.2.19,2.87-2.98h2.64l-24.26-65.91Zm-77.14,0l4.69-4.67,4.86,4.67,28.5,27.41-2.83,2.95-3.48-3.35-.82-.78-26.18-25.17-25.17,25.02-.82.81-3.46,3.44-2.89-2.89,27.59-27.43Zm31.74,28.14v20.64h-.82v-21.42l.82.78Zm-11.65-.55v-.82h4.8v18.34h-4.8v-.82h3.98v-16.71h-3.98Zm-28.87,18.64v-20.58h28.05v20.58h-28.05Zm18.31,26.15v3.45h-3.45v-3.45h3.45Zm-4.72,0v3.45h-3.45v-3.45h3.45Zm-4.74-52.25v-10.35h10.35v10.35h-10.35Zm-9.67,24.16v.82h-4.8v-18.34h4.8v.82h-3.98v16.71h3.98Zm-10.83-17.08v20.52l-.82-.78v-18.92l.82-.81Zm-105.14,2.59h44.94l-.83.82h-44.11v-.82Zm56.83,10.9h-5.17v16.14h5.17v.82h-5.98v-17.77h5.98v.82Zm17.03,0v18.9h-16.21v-21.21h16.21v2.31Zm7.14,16.95h-6.33v-.82h5.51v-16.14h-5.51v-.82h6.33v17.77Zm40.21,50.79h-3.98v-10.8h3.98v10.8Zm-.27-29.45v3.45h-3.45v-3.45h3.45Zm-3.45-3.17v-3.45h3.45v3.45h-3.45Zm3.45,7.73v3.45h-3.45v-3.45h3.45Zm0,4.55v3.45h-3.45v-3.45h3.45Zm0,4.56v3.45h-3.45v-3.45h3.45Zm-2.08-24.95l-53.42-51.37-52.53,52.22H18.61v-4.09h57.72l34.07-33.86.82-.82,19.28-19.17,38.94,37.44.72.69,16.65,16-2.84,2.95Zm3.36,4.65h3.45v3.45h-3.45v-3.45Zm15.35,36.48h-13.5v-30.27h13.5v30.27Zm10.1,1.03h-6.8v-.82h6.8v.82Zm0-2.73h-6.8v-.82h6.8v.82Zm0-2.74h-6.8v-.82h6.8v.82Zm0-2.74h-6.8v-.82h6.8v.82Zm0-2.73h-6.8v-.82h6.8v.82Zm0-2.74h-6.8v-.82h6.8v.82Zm0-2.74h-6.8v-.82h6.8v.82Zm0-2.73h-6.8v-.82h6.8v.82Zm0-2.74h-6.8v-.82h6.8v.82Zm0-2.73h-6.8v-.82h6.8v.82Zm0-2.74h-6.8v-.82h6.8v.82Zm0-2.74h-6.8v-.82h6.8v.82Zm0-2.73h-6.8v-.82h6.8v.82Zm0-2.74h-6.8v-.82h6.8v.82Zm18.89-7.39h-5.31v21.57h5.31v.82h-6.13v-23.21h6.13v.82Zm36.88,24.05h-36.06v-26.52h36.06v26.52Zm-23.21-36.63v-10.35h10.35v10.35h-10.35Zm30.15,34.97h-6.13v-.82h5.31v-21.57h-5.31v-.82h6.13v23.21Zm12.81-23.43l-1.76,1.83-.17-.16-36.46-35.06-35.4,35.19-2.89-2.89,38.24-38.02,39.51,37.99-1.07,1.12Zm-22.29,22.09h-6.06v-6.07h6.06v6.07Zm-7.63,0h-6.07v-6.07h6.07v6.07Zm-39.88,10.07h64.02v17.79h-64.02v-17.79Zm39.88-17.3h-6.07v-6.06h6.07v6.06Zm7.63,0h-6.06v-6.06h6.06v6.06Zm-17.3-7.23h-6.06v-6.06h6.06v6.06Zm-156.62,23.7v18.6h78.67v-41.52h-78.67v22.91Zm74.18,12.49h-69.67v-1.63h69.67v1.63Zm0-6.78h-69.67v-1.63h69.67v1.63Zm0-6.78h-69.67v-1.63h69.67v1.63Zm0-6.78h-69.67v-1.63h69.67v1.63Zm-1.66-11.64h3.7v4.59h-3.7v-4.59Zm-5.39,0h3.7v4.59h-3.7v-4.59Zm-5.39,0h3.7v4.59h-3.7v-4.59Zm-5.39,0h3.7v4.59h-3.7v-4.59Zm-5.39,0h3.69v4.59h-3.69v-4.59Zm-5.39,0h3.7v4.59h-3.7v-4.59Zm-5.39,0h3.7v4.59h-3.7v-4.59Zm-5.39,0h3.69v4.59h-3.69v-4.59Zm-5.39,0h3.7v4.59h-3.7v-4.59Zm-5.39,0h3.7v4.59h-3.7v-4.59Zm-5.39,0h3.7v4.59h-3.7v-4.59Zm-5.39,0h3.7v4.59h-3.7v-4.59Zm-5.39,0h3.7v4.59h-3.7v-4.59Zm-5.39,0h3.7v4.59h-3.7v-4.59Zm77.03,20.3h6.67v17.79h-6.67v-17.79Zm12.22-58.84h4.75v4.75h-4.75v-4.75Zm74.59,34.32h-6.07v-6.06h6.07v6.06Zm-11.39-23.74h2.9v2.9h-2.9v-2.9Zm0-4.13h2.9v2.9h-2.9v-2.9Zm4.14,4.13h2.9v2.9h-2.9v-2.9Zm0-4.13h2.9v2.9h-2.9v-2.9ZM35.26,176.47h41.11v-41.52h-41.11v41.52Zm38.39-6.11h-35.68v-1.63h35.68v1.63Zm0-6.78h-35.68v-1.63h35.68v1.63Zm0-6.78h-35.68v-1.63h35.68v1.63Zm0-6.78h-35.68v-1.63h35.68v1.63Zm-3.31-11.64h3.7v4.59h-3.7v-4.59Zm-6.56,0h3.7v4.59h-3.7v-4.59Zm-6.55,0h3.7v4.59h-3.7v-4.59Zm-6.56,0h3.7v4.59h-3.7v-4.59Zm-6.55,0h3.7v4.59h-3.7v-4.59Zm-6.56,0h3.7v4.59h-3.7v-4.59Zm47.02,20.3h6.67v17.79h-6.67v-17.79Zm156.48-24.52h-6.06v-6.06h6.06v6.06Zm7.63,14.45h-6.06v-6.07h6.06v6.07Zm-7.63-7.23h-6.06v-6.06h6.06v6.06Zm0,7.23h-6.06v-6.07h6.06v6.07Zm7.63-7.23h-6.06v-6.06h6.06v6.06Zm17.3-7.23h-6.06v-6.06h6.06v6.06Zm-68.67-45.63h4.75v4.74h-4.75v-4.74Zm-4.94-16.46h2.9v2.89h-2.9v-2.89Zm4.14,4.12h2.9v2.9h-2.9v-2.9Zm6.76,17.99h4.75v4.75h-4.75v-4.75Zm0,5.66h4.75v4.75h-4.75v-4.75Zm-6.76-27.77h2.9v2.89h-2.9v-2.89Zm6.76,16.46h4.75v4.74h-4.75v-4.74Zm-10.9-12.34h2.9v2.9h-2.9v-2.9Zm-62.11,30.3h-4.46v-4.45h4.46v4.45Zm0,10.71h-4.46v-4.46h4.46v4.46Zm71.57,22.83h-11.87v28.63h11.87v-28.63Zm-10.13,1.47h2.05v5.35h-2.05v-5.35Zm3.03,23.77h-2.89v-15.78h2.89v15.78Zm2.18-18.42h-2.04v-5.35h2.04v5.35Zm3.04,18.42h-2.9v-15.78h2.9v15.78Zm.13-18.42h-2.05v-5.35h2.05v5.35Zm-64.21-29.65h-4.45v-4.46h4.45v4.46Zm0-10.71h-4.45v-4.45h4.45v4.45Zm0,5.35h-4.45v-4.46h4.45v4.46Zm-5.62,0h-4.46v-4.46h4.46v4.46Zm53.51-23.31h4.75v4.74h-4.75v-4.74Zm0,5.65h4.75v4.75h-4.75v-4.75Zm5.97,5.66h4.75v4.75h-4.75v-4.75Zm0-11.3h4.75v4.74h-4.75v-4.74Zm7.58,11.3h4.75v4.75h-4.75v-4.75Zm-7.58-5.66h4.75v4.75h-4.75v-4.75Zm7.58,0h4.75v4.75h-4.75v-4.75Zm-105.7-14.58h-8.42v-1.96h8.42v1.96Zm5.51,4.33h-8.42v-1.96h8.42v1.96Zm8.71-4.33h-8.42v-1.96h8.42v1.96Zm-40.22,26.6h-8.42v-1.96h8.42v1.96Zm5.51,4.33h-8.42v-1.96h8.42v1.96Zm8.71-4.33h-8.42v-1.96h8.42v1.96Zm71.29-36.98h-8.42v-1.96h8.42v1.96Zm5.51,4.33h-8.42v-1.96h8.42v1.96Zm8.71-4.33h-8.42v-1.96h8.42v1.96Zm84.49,10.16h8.42v1.96h-8.42v-1.96Zm-5.51-4.33h8.42v1.96h-8.42v-1.96Zm-8.71,4.33h8.42v1.96h-8.42v-1.96Z"/>
  </g>
  <g>
    <path class="cls-1" d="m41.46,77.3c4.18,5.08,2.72,9.76,3.42,12.58,1,4.03,5.16,4.39,6.92.45.69-1.54.87-3.25,1.49-4.82,1.25-3.15,4.12-5.3,6.18-7.99,1.66-2.18-2.49-5.47-8.41,8.7,1.22-8.23,1.67-10.05,1.14-11.96-2.79,2.3-1.57,5.94-4.09,13.8-3.58-3.98.71-10.25-1.46-14.84-1.22,2.56-1.65,5.48-1.23,8.28-1.32-.93-1.44-2.78-1.83-4.34-.85-3.35-5.01-3.35-2.14.15Z"/>
    <path class="cls-1" d="m37.54,81.57c1.5,1.81,1.15,4.99-.92,6.11-2.07,1.12-5.15-.79-4.74-3.1-3.45,1.39-6.69-2.51-4.69-5.64-3.99-1.2-3.63-.17-2.13-4.21-2.23.99-1.71,4.54-3.49,6.21-3.22,3.03-8.5-2.84-3.75-6.57-6.06-.42-4.12-4.34-2.72-4.25-1.8.3-3.73-.54-4.75-2.04.49-.58.99-1.15,1.48-1.73-5.33,1.42-7.45-6.75-2.1-8.1-1.51-.84.06-4.41,3.39-2.07-1.66-3.41,2.1-6.98,5.42-5.15-.93-.69-.07-2.23,1-2.67,1.07-.44,2.38-.49,3.14-1.36,1.46-1.67-.38-4.79,1.22-6.32,1.12-1.07,3.37.05,3.19,1.59,1.92-3.97,4.27-3.51,4.99-2.36,1.56-4.81,4.21-4.79,5.33-3.73,2.71-5.57,5.81-3.1,5.81-1.69,2.52-6.67,6.4-3.58,6-1.88.64-.75,1.29-1.51,1.93-2.26,1.93-2.26,1.96,1.58,2.55,2.39,1.36,1.86,4-.93,5.2-1.33,2.08-.69,4.43,1.7,3.72,3.76,4.78-2.1,5.87.88,5.17,2.04,3.35-2.74,6.98.94,5.04,3.24,1.11-.43,2.21-.86,3.32-1.3,1.46,4.64-2.86,4.81,3.04,3.66.17,1.15.34,2.3.51,3.45,6.34-1.72,9.02,7.91,2.71,9.72,6.22-.62,5.7,4.28,3.74,4.71,1.2-.13,2.4-.27,3.6-.4.32.58.45,1.26.37,1.92.87-.3,1.83-.31,2.7-.02-3.37,5.59-3.37,4.36-1.25,5.83-5.78,2.77-5.02,1.16-4.01,6.74.99,5.48-2.22,6-3.35,5.11-1.76,4.65-2.15,6.22-3.53,7.07-1.07.66-2.83.24-3.02-1-1.76,4.98-9.36,2.61-7.97-2.49-.95,1.11-4.39,1.51-4.88-4.52-3.35,3.88-6.21,1.24-5.7-.46-2.15,2.81-6.68.68-5.87-2.77-3.82,2.52-2.24,2.1-3.9.19-.48.89-1.5,1.06-2.01,1.63-1.83-7.64-7.06,6.04-9.76,4.06Z"/>
  </g>
</a>
</g>
</svg>