<?xml version="1.0" encoding="UTF-8"?>
<svg id="OBJECTS" xmlns="http://www.w3.org/2000/svg" viewBox="0 0 358.1 180.28">
  <defs>
    <style>
      .cls-1 {
        fill: #243159;
        stroke-width: 0px;
      }
    </style>
  </defs>
  <g>
    <g>
      <path class="cls-1" d="m328.41,165.85c.47,5.78,4.43,8.86,5.51,4.18,1.2-5.22-.25-11.7-.59-17.04-.27-4.35-4-2.77-5.25.03-1.33,3,.06,9.63.32,12.83Z"/>
      <path class="cls-1" d="m321.02,162.46c-5.42,4.78-8.14,1.37-7.74-.47-5.51-.12-6.44-2.75-5.82-4.34,1.22-3.13,1.05-.98-.16-4.01-1.31-3.3,3.98-4.93,4.46-8,.24-1.59-1.77-3.32-2.91-2.19-.42-1.94.79-4.09,2.66-4.75-5.31.54-3.23-8.68-3.98-11.08.91-.24,1.83-.49,2.74-.73-.94-2.64.47-5.9,3.04-7.02-1.05-1.41-2.1-2.81-3.14-4.22.94-1.45,2.19-2.7,3.65-3.63-2.58-1.22-1.87-5.94.95-6.35-1.43-1.59-2.4-3.59-2.79-5.69,4.86-2.7,4.9.88,3.32-4.96.84,1.11,2.68-.38,2.51-1.76s-1.29-2.43-1.81-3.72c-1.04-2.57.94-5.87,3.7-6.17-.68-4.12,2.27-7.88,5.11-10.95,3.07-3.31,1.97-3.82,2.88-6.75.43-1.37,1.66-2.73,3.07-2.44,3.05,1.18-.51,7.47,2.54,8.64,1.28.49,3.05-.57,3.86,3.74,4.22,22.28,2.86,11.93,5.48,17.13,1.12,2.23-1.79,5.21-.3,7.22,1.08,1.47,3.62.99,4.8,2.38,1.48,1.75-.51,4.45.02,6.68.66,2.8,4.98,3.81,5.06,6.69.06,2.17-2.45,3.68-2.64,5.84-.23,2.69,3.21,5.09,2.11,7.56-.4.9-1.35,1.5-1.67,2.43-.89,2.58,3.46,4.93,2.39,7.44-.67,1.58-3.13,1.89-3.56,3.55-.35,1.33.83,2.5,1.56,3.67,1.53,2.46.94,6.01-1.3,7.84.73,1.06,1.46,2.12,2.18,3.18-2.56.73-4.56,3.14-4.8,5.79-4.45,4.28-6.8,1.56-6.71.08-.71.66-1.59,1.15-2.52,1.42-1.06-1.1-1.52-2.66-1.42-4.17-1.65,2.52-3.27,1.61-5.52,2.56-2.35.99-4.52,2.81-6.9,3.59-.26-.36-2.62-3.86-2.41-4.04Z"/>
    </g>
    <path class="cls-1" d="m55.16,164.46c.31.06,1.5-1.33,1.58-1.61.3-1.02-1.45-1.33-2.17-2.03.8-.37,3.36-1.71,2.42-2.87-.64-.79-2.45.03-3.38-.09.98-.91,2.25-1.52,2.18-3.11-.06-1.33-2.38-2.02-2.64-.71,0-.69.26-1.7-.2-2.3-.27-.36-2.25-.76-2.26-.29.04-1.56-1.81-2.85-3.26-2.26.3-1.09-1.08-3.55-5.04-.83.75-.52.17-2.29-.1-2.91-.86-1.93-1.45-.86-2.48.18-.38-.44-3.93-2.85-3.81-.62-.05-.91-.3-2.16-.93-2.85-1.02-1.12-1.58-.4-2.46.29-1.15.89-2.03-.74-2.88-1.2-.82-.45-1.07.29-1.58.76-1.94,1.75-2.72-1.54-4.49.88-1.83,2.5-2.56-1.86-3.8,1.67-.64,1.82-2.6,1.51-4.41.83-3.18-1.19-.75,2.19-1.88,3.39-.73.78-2.4-.54-3.19-.66-1.79-.26-1.12,2.39-1.37,3.61-5.77-.77-.45,2.13-2.55,3.95-.71.61-2.62-.22-2.66,1.31-.03,1.01,1.41,1.72.94,3-.37,1.01-1.8.2-2.17,1.95-.07.32,2.23,5.89,5.83,8.15,6.63,4.18,25.72,2.57,40.59,1.56,1.73-.12,4.78-1.33,6.52-2.03,1.35-.55.03-1.16-.89-1.39.45.11,4.95-2.93.55-3.77Z"/>
  </g>
  <path class="cls-1" d="m305.48,126.27h20.33l-47.57-19.52-16.21-68.83h-67.91l-8.86-7.66-8.86,7.66h-67.9l-9.93,42.19-6.29-5.63-10.31,9.17h-39.32l-5.82,37.26-15.48,9.06,19.21-.14v30.45h-2.76v9.1h125.72v1.47h43.49v-1.47h101.21v-9.1h-2.75v-34Zm1.81,42.17h-100.28v-3.35h-2.99v-3.88h103.27v7.23Zm-101.21.93v.53h-41.62v-3.89h41.62v3.35Zm-167.33-8.17h127.77v3.88h-2.99v3.35H38.75v-7.23Zm-2.09-39.11l3.92-2.29,1.39-.82,4.89-2.86,36.53-32.48,8.91-7.92,6.05,5.4-.13.55-.6,2.56-5.32-4.76-43.77,38.92-.97.57-6.97,4.07-4.48,2.62-.94.55h.86s4.56-.06,4.56-.06l22.98-.25v2.8l-22.98.17-15.71.11,11.79-6.91ZM185.27,31.49l7.43,6.43,76.31,66.03.06.06,9.45,3.88,42.56,17.46h-53.26v-2.8h37.67v-.66h-.24l-7.04-2.89-13.09-5.37-5.81-2.38-11.72-4.81-82.31-71.21-62.25,53.87-20.07,17.37-11.55,4.18-23.14,8.36-2.25.81-.93.34-8.01,2.9-.95-2.64,3.88-1.4,22.21-8.02,9.97-3.61,1.5-.54,7.76-2.8.08-.04,21.51-18.62,54.82-47.44,7.43-6.43Zm81.61,128.78h-2.82v-38.4h2.82v38.4Zm-63.78,4.81h-35.64v-3.88h35.64v3.88Zm-99.42-38.13v-5.82h2.82v39.14h-2.82v-33.32Zm150.42-3.02v28.75h-38.06v-28.75h38.06Zm-152.75-3.74v-2.44h167.88v2.44H101.33Zm92.92,38.25h-17.97v-32.99h17.97v32.99Zm-76.62,1.82v-6.61h35.67v6.61h-35.67Zm0-37.94h35.67v28.5h-35.67v-28.5Zm140.48-17.13v1.64H112.43v-1.64h145.69Zm-111.4-12.63v-17.43h14.59v17.43h-14.59Zm19.5,9.8v-27.23h38.1v27.23h-38.1Zm43.02-9.8v-17.43h14.59v17.43h-14.59Zm54.1,24.24H90.29v-1.51l.11-.49h189.74l.11.49v1.51h-16.92Zm-153.14,10.13v-5.82h2.82v39.14h-2.82v-33.32Zm47.73-5.82h2.82v39.14h-2.82v-39.14Zm6.53,0h2.82v39.14h-2.82v-39.14Zm38.79,0h2.82v39.14h-2.82v-39.14Zm6.53,0h2.82v39.14h-2.82v-39.14Zm47.73,0h2.82v39.14h-2.82v-39.14Zm-163.86-20.14l-1.24,5.28-10.23,3.7v-11.87h11.48v2.89Zm-20.51,26.29h24.82v22.78h-24.82v-22.78Zm197.6,23.27v-23.98h31.74v23.98h-31.74Zm-208.96-16.27v21.15h-12.41v-21.15h12.41Zm3.27-7.33v-5.82l.93-.35v39.49h-.93v-33.32Zm21.06-23.82h-1.76v-2.07h1.76v2.07Zm2.68,0h-1.76v-2.07h1.76v2.07Zm2.68,0h-1.76v-2.07h1.76v2.07Zm-5.36,2.89h-1.76v-2.07h1.76v2.07Zm2.68,0h-1.76v-2.07h1.76v2.07Zm2.68,0h-1.76v-2.07h1.76v2.07Zm100.91,21.31h-14.23v29.23h14.23v-29.23Zm-10.59,26.3h-2.21v-16.18h2.21v16.18Zm4.57,0h-2.21v-16.18h2.21v16.18Zm4.58,0h-2.21v-16.18h2.21v16.18Zm0-18.95h-11.35v-5.71h11.35v5.71Zm20.95-54.06h2.33v4.12h-2.33v-4.12Zm3.47,0h2.33v4.12h-2.33v-4.12Zm3.47,0h2.33v4.12h-2.33v-4.12Zm-6.94,5.51h2.33v4.12h-2.33v-4.12Zm3.47,0h2.33v4.12h-2.33v-4.12Zm3.47,0h2.33v4.12h-2.33v-4.12Zm-69.46-5.51h2.33v4.12h-2.33v-4.12Zm3.47,0h2.33v4.12h-2.33v-4.12Zm3.47,0h2.33v4.12h-2.33v-4.12Zm-6.94,5.51h2.33v4.12h-2.33v-4.12Zm3.47,0h2.33v4.12h-2.33v-4.12Zm3.47,0h2.33v4.12h-2.33v-4.12Zm14.66-1.39h-1.92v-3.88h1.92v3.88Zm3.06,0h-1.92v-3.88h1.92v3.88Zm1.14-3.88h1.92v3.88h-1.92v-3.88Zm-4.21,8.82h-1.92v-3.88h1.92v3.88Zm3.06,0h-1.92v-3.88h1.92v3.88Zm1.14-3.88h1.92v3.88h-1.92v-3.88Zm-6.12,4.98h8.04v9.27h-8.04v-9.27Zm26.29-6.04h-1.92v-3.88h1.92v3.88Zm3.06,0h-1.92v-3.88h1.92v3.88Zm1.14-3.88h1.92v3.88h-1.92v-3.88Zm-4.21,8.82h-1.92v-3.88h1.92v3.88Zm3.06,0h-1.92v-3.88h1.92v3.88Zm1.14-3.88h1.92v3.88h-1.92v-3.88Zm-6.12,4.98h8.04v9.27h-8.04v-9.27Zm-11.8-6.04h-1.92v-3.88h1.92v3.88Zm3.06,0h-1.92v-3.88h1.92v3.88Zm3.06,0h-1.92v-3.88h1.92v3.88Zm0,4.94h-1.92v-3.88h1.92v3.88Zm1.14-8.82h1.92v3.88h-1.92v-3.88Zm-7.27,8.82h-1.92v-3.88h1.92v3.88Zm3.06,0h-1.92v-3.88h1.92v3.88Zm4.21-3.88h1.92v3.88h-1.92v-3.88Zm-9.19,4.98h11.11v9.27h-11.11v-9.27Zm-57.75,35.98v13.07h27.01v-13.07h-27.01Zm26.08,12.14h-25.14v-11.21h25.14v11.21Zm-21.17-6.28h-2.4v-3.43h2.4v3.43Zm3.54,0h-2.4v-3.43h2.4v3.43Zm3.54,0h-2.4v-3.43h2.4v3.43Zm-7.08,4.79h-2.4v-3.43h2.4v3.43Zm3.54,0h-2.4v-3.43h2.4v3.43Zm3.54,0h-2.4v-3.43h2.4v3.43Zm5.44-4.79h-2.4v-3.43h2.4v3.43Zm3.54,0h-2.4v-3.43h2.4v3.43Zm3.54,0h-2.4v-3.43h2.4v3.43Zm-7.08,4.79h-2.4v-3.43h2.4v3.43Zm3.54,0h-2.4v-3.43h2.4v3.43Zm3.54,0h-2.4v-3.43h2.4v3.43Zm84.82-8.31h-2.11v-3h2.11v3Zm3.21,0h-2.11v-3h2.11v3Zm3.21,0h-2.11v-3h2.11v3Zm3.21,0h-2.11v-3h2.11v3Zm-9.64,4.18h-2.11v-3h2.11v3Zm3.21,0h-2.11v-3h2.11v3Zm3.21,0h-2.11v-3h2.11v3Zm3.21,0h-2.11v-3h2.11v3Zm-9.64,4.18h-2.11v-3h2.11v3Zm3.21,0h-2.11v-3h2.11v3Zm3.21,0h-2.11v-3h2.11v3Zm3.21,0h-2.11v-3h2.11v3Zm0,13.04h-11.75v-11.94h11.75v11.94Zm4.68-21.39h-2.11v-3h2.11v3Zm3.21,0h-2.11v-3h2.11v3Zm3.21,0h-2.11v-3h2.11v3Zm-6.43,4.18h-2.11v-3h2.11v3Zm3.21,0h-2.11v-3h2.11v3Zm3.21,0h-2.11v-3h2.11v3Zm-6.43,4.18h-2.11v-3h2.11v3Zm3.21,0h-2.11v-3h2.11v3Zm3.21,0h-2.11v-3h2.11v3Zm0,13.04h-8.53v-11.94h8.53v11.94Zm-31.85-21.39h-2.11v-3h2.11v3Zm3.21,0h-2.11v-3h2.11v3Zm3.21,0h-2.11v-3h2.11v3Zm-6.43,4.18h-2.11v-3h2.11v3Zm3.21,0h-2.11v-3h2.11v3Zm3.21,0h-2.11v-3h2.11v3Zm-6.43,4.18h-2.11v-3h2.11v3Zm3.21,0h-2.11v-3h2.11v3Zm3.21,0h-2.11v-3h2.11v3Zm0,13.04h-8.53v-11.94h8.53v11.94Zm56.86-19.61h-1.76v-2.5h1.76v2.5Zm2.68,0h-1.76v-2.5h1.76v2.5Zm2.68,0h-1.76v-2.5h1.76v2.5Zm.92-2.5h1.76v2.5h-1.76v-2.5Zm-6.28,5.98h-1.76v-2.5h1.76v2.5Zm2.68,0h-1.76v-2.5h1.76v2.5Zm2.68,0h-1.76v-2.5h1.76v2.5Zm.92-2.5h1.76v2.5h-1.76v-2.5Zm-6.28,5.98h-1.76v-2.5h1.76v2.5Zm2.68,0h-1.76v-2.5h1.76v2.5Zm2.68,0h-1.76v-2.5h1.76v2.5Zm.92-2.5h1.76v2.5h-1.76v-2.5Zm-8.04,3.42h9.8v9.96h-9.8v-9.96Zm13.7-7.88h-1.76v-2.5h1.76v2.5Zm2.68,0h-1.76v-2.5h1.76v2.5Zm.92-2.5h1.76v2.5h-1.76v-2.5Zm-3.6,5.98h-1.76v-2.5h1.76v2.5Zm2.68,0h-1.76v-2.5h1.76v2.5Zm.92-2.5h1.76v2.5h-1.76v-2.5Zm-3.6,5.98h-1.76v-2.5h1.76v2.5Zm2.68,0h-1.76v-2.5h1.76v2.5Zm.92-2.5h1.76v2.5h-1.76v-2.5Zm-5.36,3.42h7.12v9.96h-7.12v-9.96Zm-19.45-7.88h-1.76v-2.5h1.76v2.5Zm2.68,0h-1.76v-2.5h1.76v2.5Zm.92-2.5h1.76v2.5h-1.76v-2.5Zm-3.6,5.98h-1.76v-2.5h1.76v2.5Zm2.68,0h-1.76v-2.5h1.76v2.5Zm.92-2.5h1.76v2.5h-1.76v-2.5Zm-3.6,5.98h-1.76v-2.5h1.76v2.5Zm2.68,0h-1.76v-2.5h1.76v2.5Zm.92-2.5h1.76v2.5h-1.76v-2.5Zm-5.36,3.42h7.12v9.96h-7.12v-9.96Zm-218.67-.28h-1.76v-2.07h1.76v2.07Zm2.68,0h-1.76v-2.07h1.76v2.07Zm2.68,0h-1.76v-2.07h1.76v2.07Zm-5.36,2.89h-1.76v-2.07h1.76v2.07Zm2.68,0h-1.76v-2.07h1.76v2.07Zm2.68,0h-1.76v-2.07h1.76v2.07Zm-5.36,2.89h-1.76v-2.07h1.76v2.07Zm2.68,0h-1.76v-2.07h1.76v2.07Zm2.68,0h-1.76v-2.07h1.76v2.07Zm0,9.02h-7.12v-8.26h7.12v8.26Zm18.44-20.47h-1.76v-1.75h1.76v1.75Zm2.68,0h-1.76v-1.75h1.76v1.75Zm.92-1.75h1.76v1.75h-1.76v-1.75Zm-3.6,4.2h-1.76v-1.75h1.76v1.75Zm2.68,0h-1.76v-1.75h1.76v1.75Zm.92-1.75h1.76v1.75h-1.76v-1.75Zm-3.6,4.2h-1.76v-1.75h1.76v1.75Zm2.68,0h-1.76v-1.75h1.76v1.75Zm.92-1.75h1.76v1.75h-1.76v-1.75Zm-5.36,4.27h7.12v6.99h-7.12v-6.99Zm14.11-7.4h-1.76v-1.75h1.76v1.75Zm2.68,0h-1.76v-1.75h1.76v1.75Zm.92-1.75h1.76v1.75h-1.76v-1.75Zm-3.6,4.2h-1.76v-1.75h1.76v1.75Zm2.68,0h-1.76v-1.75h1.76v1.75Zm.92-1.75h1.76v1.75h-1.76v-1.75Zm-3.6,4.2h-1.76v-1.75h1.76v1.75Zm2.68,0h-1.76v-1.75h1.76v1.75Zm.92-1.75h1.76v1.75h-1.76v-1.75Zm-5.36,4.27h7.12v6.99h-7.12v-6.99Zm34.27,2.46h26.04v1.79h-26.04v-1.79Zm0,3.81h26.04v1.79h-26.04v-1.79Z"/>
</svg>