<?xml version="1.0" encoding="UTF-8"?>
<svg id="houses" xmlns="http://www.w3.org/2000/svg" viewBox="0 0 309.7 192.59">
  <defs>
    <style>
      .cls-1h {
        fill: #634d40;
        stroke: #634d40;
        stroke-miterlimit: 10;
      }

      .cls-2h {
        fill: #f2e0bf;
      }

      .cls-2h, .cls-3h, .cls-4h {
        stroke-width: 0px;
      }

      .cls-3h {
        fill: #c4d8b6;
      }

      .cls-4h {
        fill: #97c579;
      }
    </style>
  </defs>
  <path class="cls-3h" d="m52.27,178.85C43.31,79.99,107.17,9.75,156.04,9.36c49.16-.39,114.65,69.65,106.11,169.49"/>
  <path class="cls-4h" d="m276.31,178.85c2.79-.29,5.53-46.06-13.01-93.77-8.03-20.65-14.07-35.57-27.02-38.77-14.16-3.5-20.31,24.35-47.35,31.05-15.65,3.88-21.71-2.7-28.17,2.63-19.04,15.68,13.28,89.29,22.17,87.38,4.62-.99-2.53-21.21,10.57-36.46,10.79-12.56,32.35-18.31,48.49-11.06,12.7,5.71,18.53,17.87,24.96,31.37,7.94,16.66,7.99,27.77,9.37,27.63Z"/>
  <path class="cls-4h" d="m138.93,145.21c2.08-.1,14.47-54.06-11.9-79.66-8.73-8.47-18.28-10.52-23.67-23.11-6.32-14.77.84-25.95-4.46-29.77-7.88-5.67-32.66,10.79-47.35,31.05-4.51,6.22-19.9,29.12-16.55,57.89,1.86,15.95,9.04,29.93,11.16,29.45,1.83-.42-1.29-11.38.97-26.56,2.53-16.97,11.51-37.27,19.12-36.84,9.77.55,6.02,34.56,26.5,44.69,13.79,6.82,25.82-3.45,36.81,5.24,11.37,9,8.15,27.68,9.37,27.63Z"/>
  <path class="cls-1h" d="m101.21,178.85c-11.34-.01-22.69-.02-34.03-.04,3.78-2.21,11.6-7.5,16.38-17.39,3.93-8.13,3.74-15.4,3.43-24.47-.25-7.48-1.51-18.75-6.54-31.93-8.99-9-11.48-16.07-11.98-21.02-.15-1.44-.24-3.81-1.65-6.47-2.58-4.85-7.73-7.2-11.79-8.43,1.53.24,3.84.73,6.44,1.84,3.97,1.7,4.96,4.09,7.17,4.05,2.26-.05,4.18-2.41,5.96-5.67,4.64-8.5,6.13-19.03,6.57-26.86.13,6.24-.46,15.07-3.81,24.94-1.73,5.09-3.83,9.41-5.86,12.92.16,2.66.91,8.74,5.25,14.62,2.78,3.77,5.97,6.03,8.08,7.27,1.64,7.67,3.29,15.34,4.93,23.02,3.3-10.62,6.75-21.35,10.37-32.17,1.04-3.12,2.09-6.22,3.15-9.31,3.22-.89,6.44-1.77,9.66-2.66-3.39-6.04-6.78-12.07-10.17-18.11,2.19,3.71,4.38,7.41,6.56,11.12l4.01,5.29c.54.66,1.08,1.32,1.61,1.98-3.57,1.15-7.14,2.3-10.71,3.44-.5,2.38-1,4.76-1.51,7.14-.94,3.23-1.88,6.47-2.82,9.7-.83,4.11-1.66,8.23-2.5,12.34-1.35,4.67-4.54,17.22-3.51,33.81,0,.04,0,.07,0,.09-.02.12-.05.21-.06.21-.04.1-4.3,13.33,2.49,24.77.87,1.47,2.38,3.67,4.87,5.96Z"/>
  <path class="cls-1h" d="m197.66,179.57c17.45.3,34.9.59,52.35.89-3.89-1.28-11.36-4.43-16.38-11.89-1.06-1.58-1.88-3.15-2.51-4.64.86-5.63,1.72-11.26,2.58-16.9,1.02-5.67,2.03-11.34,3.05-17.01,8.99-6.15,11.48-10.98,11.98-14.37.15-.99.24-2.6,1.65-4.42,2.58-3.32,7.73-4.92,11.79-5.76-1.53.16-3.84.5-6.44,1.26-3.97,1.16-4.96,2.8-7.17,2.77-2.26-.03-4.18-1.65-5.96-3.88-4.64-5.81-6.13-13-6.57-18.36-.13,4.26.46,10.3,3.81,17.05,1.73,3.48,3.83,6.43,5.86,8.83-.16,1.82-.91,5.97-5.25,10-2.78,2.58-5.97,4.12-8.08,4.97-1.64,5.24-3.29,10.49-4.93,15.73-3.3-7.26-6.75-14.59-10.37-21.99-1.04-2.13-2.09-4.25-3.15-6.37-3.22-.61-6.44-1.21-9.66-1.82,1.08-2.34,2.17-4.69,3.25-7.03-1.72-2.27-3.43-4.54-5.15-6.81,1.45,2.16,2.9,4.33,4.36,6.49-.18,1.34-.75,3.99-2.87,6.19-.54.56-1.09,1-1.61,1.35,3.57.78,7.14,1.57,10.71,2.35,1.17,3.25,2.34,6.5,3.5,9.76-2.34-.46-4.69-.93-7.03-1.39-2.34-1.3-4.68-2.6-7.03-3.91-2.47-.65-4.94-1.31-7.4-1.96-7.59-8.79-11.43-13.14-11.53-13.05-.11.09,3.71,4.83,11.44,14.21,2.34.56,4.67,1.12,7.01,1.68,2.11,1.21,4.22,2.41,6.33,3.62-.61.13-1.23.26-1.84.39-2.54.45-5.07.89-7.61,1.34-8.56-5.01-12.89-7.44-12.99-7.28-.1.16,4.19,3,12.85,8.5,1.71-.68,4.14-1.43,7.14-1.69,2.46-.21,4.58-.03,6.2.23,1.84.83,3.68,1.65,5.52,2.48l2.11,5.07c-.06,1.31-.12,2.62-.19,3.93,1.46,1.94,2.19,3.65,2.58,4.76,0,0,1.69,4.88,1.26,16.37,0,0,0,.03,0,.06.02.08.06.14.06.15.06.09-.96,10.02-10.08,16.06-5.96,3.94-12.28,4.19-15.59,4.03Z"/>
  <path class="cls-2h" d="m309.7,192.59H0v-13.74h309.7v13.74Z"/>
</svg>