<?xml version="1.0" encoding="UTF-8"?>
<svg id="houses" xmlns="http://www.w3.org/2000/svg" viewBox="0 0 309.7 192.59">
  <defs>
    <style>
      .cls-1b {
        fill: #d84b53;
      }

      .cls-1b, .cls-2b, .cls-3b {
        stroke-width: 0px;
      }

      .cls-2b {
        fill: #333;
      }

      .cls-3b {
        fill: #fff;
      }
    </style>
  </defs>
  <rect class="cls-2b" x="43.94" y="78.41" width="216.28" height="114"/>
  <path class="cls-3b" d="m31.4,95.43h240.58c.36-8.88-.53-21.76-7.84-33.7-18.66-30.47-64.55-30.89-114.41-31.35-49.13-.45-91.13-.83-109.71,27.43-8.22,12.51-9.3,26.73-8.62,37.61Z"/>
  <rect class="cls-3b" x="50.99" y="103.13" width="56.01" height="41.14"/>
  <rect class="cls-3b" x="124.3" y="104.26" width="56.01" height="90.14"/>
  <rect class="cls-3b" x="50.99" y="151.74" width="56.01" height="41.14"/>
  <rect class="cls-3b" x="196.37" y="104.26" width="56.01" height="41.14"/>
  <rect class="cls-3b" x="196.37" y="151" width="56.01" height="41.14"/>
  <rect class="cls-2b" x="134.37" y="120.78" width="34.54" height="71.24"/>
  <circle class="cls-1b" cx="110.37" cy="67.54" r="11.75"/>
  <circle class="cls-1b" cx="138.81" cy="67.54" r="11.75"/>
  <circle class="cls-1b" cx="165.81" cy="67.54" r="11.75"/>
  <circle class="cls-1b" cx="194.25" cy="67.54" r="11.75"/>
</svg>