<?xml version="1.0" encoding="UTF-8"?>
<svg id="houses" xmlns="http://www.w3.org/2000/svg" viewBox="0 0 309.7 192.59">
  <defs>
    <style>
      .cls-1 {
        fill: #555;
      }

      .cls-1, .cls-13, .cls-14, .cls-15 {
        stroke-width: 0px;
      }

      .cls-13 {
        fill: #cbc4bc;
      }

      .cls-14 {
        fill: #e0e0e0;
      }

      .cls-15 {
        fill: #c2b5a8;
      }
    </style>
  </defs>
  <polygon class="cls-13" points="129.16 119.18 129.16 95.61 163.64 95.61 163.64 119.99 129.16 119.18"/>
  <path class="cls-15" d="m93.13,132.37c17.41-8.71,34.81-17.43,52.22-26.14,18.25,8.71,36.5,17.43,54.74,26.14h-106.97Z"/>
  <polygon class="cls-15" points="93.31 192.59 93.31 132.37 200.28 132.37 202.24 192.52 93.31 192.59"/>
  <rect class="cls-13" x="134.24" y="76.55" width="24.32" height="29.59"/>
  <rect class="cls-13" x="137.07" y="57.36" width="18.63" height="24.59"/>
  <polygon class="cls-13" points="146.95 12.63 141.02 57.36 152.31 57.36 146.95 12.63"/>
  <rect class="cls-14" x="93.13" y="133.11" width="107.43" height="3.04"/>
  <rect class="cls-14" x="93.13" y="159.87" width="108.55" height="5.09"/>
  <rect class="cls-1" x="137.08" y="172.22" width="21.87" height="20.41"/>
  <rect class="cls-1" x="168.2" y="172.22" width="21.87" height="20.41"/>
  <rect class="cls-1" x="107" y="172.14" width="21.87" height="20.41"/>
  <rect class="cls-1" x="80.79" y="119.63" width="68.96" height="2.55" transform="translate(-42.16 65.02) rotate(-26.82)"/>
  <rect class="cls-1" x="141.74" y="118.72" width="68.96" height="2.55" transform="translate(70.47 -65.13) rotate(26.01)"/>
  <rect class="cls-1" x="144.23" y="79.04" width="4.31" height="16.57"/>
  <circle class="cls-14" cx="146.66" cy="66.79" r="4.21"/>
</svg>