<?xml version="1.0" encoding="UTF-8"?>
<svg id="OBJECTS" xmlns="http://www.w3.org/2000/svg" viewBox="0 0 305.25 189.27">
  <defs>
    <style>
      .cls-1 {
        fill: #243159;
        stroke-width: 0px;
      }
    </style>
  </defs>
  <path class="cls-1" d="m148.73,42.45h6.32v6.33h-6.32v-6.33Zm31.67,19.45h8.67v-31.33h-8.67v31.33Zm-31.67-21.55h6.32v-6.33h-6.32v6.33Zm18.09,8.43h6.33v-6.33h-6.33v6.33Zm0-8.43h6.33v-6.33h-6.33v6.33Zm-48.63-10.31h59.09v32.39h-59.09V30.04Zm1.07,31.33h56.96v-30.26h-56.96v30.26Zm11.37-12.59h6.32v-6.33h-6.32v6.33Zm27.9,9.67h14.63v-7.93h-14.63v7.93Zm-27.9-18.1h6.32v-6.33h-6.32v6.33Zm34.21-6.33h-6.32v6.33h6.32v-6.33Zm-42.52,24.43h14.63v-7.93h-14.63v7.93Zm124.9,39.24v28.53h3.97v5.72h-3.44v43.73h-.53v.06H48.24v-.06h-.53v-43.73h-3.44v-5.72h3.97v-28.53h-7.05v-14.26h-10.86L67.58,14.62h160.31l37.24,68.81h-10.86v14.26h-7.05Zm2.91,29.6h-22.18v3.59h22.18v-3.59Zm-204.8,3.59h22.19v-3.59h-22.19v3.59ZM98.35,19.55v7.45h98.76v-7.45h-98.76Zm4.62,47.51h89.52V28.07h-89.52v39Zm-60.71,29.56h210.94v-12.66H42.26v12.66Zm88.42,72.97v-37.65h-15.3v42.67h15.3v-5.02Zm54.92-69.34v30.31h40.26v-30.31h-40.26Zm-21.89,57.81h-31.97v1.82h31.97v-1.82Zm0,2.89h-31.97v1.81h31.97v-1.81Zm0,2.88h-31.97v1.82h31.97v-1.82Zm0,2.89h-31.97v1.81h31.97v-1.81Zm-96.51-18.55h1.21v-11.77h-1.21v11.77Zm45.04-11.77h-1.21v11.77h1.21v-11.77Zm-3.13,0h-1.21v11.77h1.21v-11.77Zm-35.64,11.77h1.21v-11.77h-1.21v11.77Zm3.13,0h1.21v-11.77h-1.21v11.77Zm3.13,0h1.21v-11.77h-1.21v11.77Zm3.13,0h1.21v-11.77h-1.21v11.77Zm3.13,0h1.21v-11.77h-1.21v11.77Zm3.13,0h1.21v-11.77h-1.21v11.77Zm3.13,0h1.21v-11.77h-1.21v11.77Zm3.13,0h1.21v-11.77h-1.21v11.77Zm3.13,0h1.21v-11.77h-1.21v11.77Zm3.13,0h1.21v-11.77h-1.21v11.77Zm3.13,0h1.21v-11.77h-1.21v11.77Zm-34.44,0h1.21v-11.77h-1.21v11.77Zm41.91-12.83h2.07v-.79h-49.18v.79h47.1Zm-45.04,13.9h-2.07v.79h49.18v-.79h-47.11Zm42.65-18.67v-30.31h-40.26v30.31h40.26Zm48.7,18.52v-45.03h-21.66v45.03h21.66Zm-44.24-18.21h19.8v-3.59h-22.19v3.59h2.38Zm49.4,0h19.8v-3.59h-22.18v3.59h2.37Zm10.19-33.19h-2.93l-2.06,28.53h7.04l-2.05-28.53Zm-49.41,0h-2.93l-2.05,28.53h7.04l-2.06-28.53Zm7.25,73.73h31.97v-1.82h-31.97v1.82Zm98.58-36.88h-49.06v.79h49.06v-.79Zm-1.94,1.86h-1.21v11.77h1.21v-11.77Zm-41.91,11.77h1.21v-11.77h-1.21v11.77Zm38.78-11.77h-1.21v11.77h1.21v-11.77Zm-35.64,11.77h1.21v-11.77h-1.21v11.77Zm3.13,0h1.21v-11.77h-1.21v11.77Zm3.13,0h1.21v-11.77h-1.21v11.77Zm3.13,0h1.21v-11.77h-1.21v11.77Zm3.13,0h1.21v-11.77h-1.21v11.77Zm3.13,0h1.21v-11.77h-1.21v11.77Zm3.13,0h1.21v-11.77h-1.21v11.77Zm3.13,0h1.21v-11.77h-1.21v11.77Zm3.13,0h1.21v-11.77h-1.21v11.77Zm3.13,0h1.21v-11.77h-1.21v11.77Zm3.13,0h1.21v-11.77h-1.21v11.77Zm-37.57,0h1.21v-11.77h-1.21v11.77Zm-2.07,1.86h49.06v-.79h-49.06v.79Zm-126.32-52.34l-2.06,28.53h7.05l-2.06-28.53h-2.93Zm109.83,76.92h15.3v-42.67h-15.3v42.67Zm77.77-48.39l-2.05-28.53h-2.93l-2.06,28.53h7.04Zm-193.78,48.39h15.3v-42.67h-15.3v42.67Zm16.36-14.2h49.18v-5.77h-49.18v5.77Zm181.55-28.48h-15.3v42.67h15.3v-42.67Zm-65.54,28.48h49.18v-5.77h-49.18v5.77Zm-38.33-20.84h2.76v-20.06h-2.76v20.06Zm22.02-97.13h-6.32v6.33h6.32v-6.33Zm-58.45,19.45h8.67v-31.33h-8.67v31.33Zm22.24-27.88h-6.32v6.33h6.32v-6.33Zm0,8.43h-6.32v6.33h6.32v-6.33Zm18.1,0h-6.32v6.33h6.32v-6.33Zm0-8.43h-6.32v6.33h6.32v-6.33Zm-6.32,24.43h14.63v-7.93h-14.63v7.93Zm-58.79,59.5h6.32v-6.32h-6.32v6.32Zm71.02,1.58h-2.76v20.06h2.76v-20.06Zm-79.32,8.1h14.63v-7.93h-14.63v7.93Zm130.64-7.93h-14.63v7.93h14.63v-7.93Zm-104.16-1.74h6.32v-6.32h-6.32v6.32Zm-8.31,9.67h14.63v-7.93h-14.63v7.93Zm46.17-22.79h20.12v43.49h-20.12v-43.49Zm15.75,13.92h-4.31v21.6h4.31v-21.6Zm-10.99-3.34h10.61v-6.69h-10.61v6.69Zm-.38,24.93h4.31v-21.6h-4.31v21.6Zm-44.22-37.15h-6.32v6.32h6.32v-6.32Zm0,8.43h-6.32v6.32h6.32v-6.32Zm-18.18-8.43h-6.32v6.32h6.32v-6.32Zm0,8.43h-6.32v6.32h6.32v-6.32Zm1.98-2.11h6.32v-6.32h-6.32v6.32Zm132.21-6.32h-6.32v6.32h6.32v-6.32Zm-18.18,8.43h-6.32v6.32h6.32v-6.32Zm26.48,0h-6.32v6.32h6.32v-6.32Zm0-8.43h-6.32v6.32h6.32v-6.32Zm-122.34,6.32h6.32v-6.32h-6.32v6.32Zm114.03,2.11h-6.32v6.32h6.32v-6.32Zm8.31,8.06h-14.63v7.93h14.63v-7.93Zm-18.18-8.06h-6.32v6.32h6.32v-6.32Zm-8.31-8.43h-6.32v6.32h6.32v-6.32Zm8.31,0h-6.32v6.32h6.32v-6.32Z"/>
  <g>
    <g>
      <path class="cls-1" d="m233.56,156.34c11.9,20.94,6.95,21.34,26.37,20.08,9.5-.62,15.57.53,21.5-.36,8.7-1.29,7.49-8.54,14.02-11.85-4.03,1.16-8.43,5.59-10.53,8.08,1.46-4.75,6.49-10.16,3.41-15.15.75,4.78-4.6,8.9-6.76,13.24,1.56-5.12,3.11-10.49.77-15.49.26,5.13-2.12,10.16-4.63,15.03.31-4.33.62-8.66.94-12.99-1.92,4.4-3.4,8.88-4.45,13.4.03-5.74-.36-11.91-5.99-16.62,3.37,5.1,2.39,10.91,1.35,16.42-1.5-5.19-5.1-10.1-5.86-15.35-.39,5.09.13,10.21,1.56,15.22-1.95-6.81-7.4-13.7-10.09-15.11,2.57,3.82,5.81,11.43,4.19,14.76-.43-5.49-7.5-9.86-9.27-15.24.8,8.63,4.51,12.82,4.78,15.71-2.46-5.39-6.58-10.46-12.05-14.83,4,4.11,6.3,8.93,6.29,13.79-1.05-4.79-6.54-8.57-10.85-12.52,3.25,4.06,5.49,8.46,6.63,12.98-2.42-4.8-8.64-8.46-11.33-13.2Z"/>
      <g>
        <path class="cls-1" d="m266.84,164.1c-.69,7.39,2.9,7.4,3.78,4.32.41-1.44,1.02-16.27-.82-15.71-2.59.78-1.97.79-2.96,11.39Z"/>
        <path class="cls-1" d="m255.5,127.12c-.28-7.97,4.87-7.36,4.44-10.17-1.93-12.71,8.76-30.72,10.38-28.34,8.09,11.84,5.73,21.29,6.98,24.28,1.11,2.66,4.55,3.96,4.51,11.5-.02,4.61-1.5,8.97-1.27,10.33.18,1.06,3.98,7.18-.08,14.34-7.01,12.34-23.64,15.06-24.96-21.93Z"/>
      </g>
    </g>
    <g>
      <path class="cls-1" d="m61.9,156.34c-11.9,20.94-6.95,21.34-26.37,20.08-9.5-.62-15.57.53-21.5-.36-8.7-1.29-7.49-8.54-14.02-11.85,4.03,1.16,8.43,5.59,10.53,8.08-1.46-4.75-6.49-10.16-3.41-15.15-.75,4.78,4.6,8.9,6.76,13.24-1.56-5.12-3.11-10.49-.77-15.49-.26,5.13,2.12,10.16,4.63,15.03-.31-4.33-.62-8.66-.94-12.99,1.92,4.4,3.4,8.88,4.45,13.4-.03-5.74.36-11.91,5.99-16.62-3.37,5.1-2.39,10.91-1.35,16.42,1.5-5.19,5.1-10.1,5.86-15.35.39,5.09-.13,10.21-1.56,15.22,1.95-6.81,7.4-13.7,10.09-15.11-2.57,3.82-5.81,11.43-4.19,14.76.43-5.49,7.5-9.86,9.27-15.24-.8,8.63-4.51,12.82-4.78,15.71,2.46-5.39,6.58-10.46,12.05-14.83-4,4.11-6.3,8.93-6.29,13.79,1.05-4.79,6.54-8.57,10.85-12.52-3.25,4.06-5.49,8.46-6.63,12.98,2.42-4.8,8.64-8.46,11.33-13.2Z"/>
      <g>
        <path class="cls-1" d="m28.62,164.1c.68,7.39-2.9,7.4-3.78,4.32-.41-1.44-1.02-16.27.82-15.71,2.59.78,1.97.79,2.96,11.39Z"/>
        <path class="cls-1" d="m39.96,127.12c.28-7.97-4.87-7.36-4.44-10.17,1.93-12.71-8.76-30.72-10.38-28.34-8.09,11.84-5.73,21.29-6.98,24.28-1.11,2.66-4.55,3.96-4.51,11.5.02,4.61,1.5,8.97,1.27,10.33-.18,1.06-3.98,7.18.08,14.34,7.01,12.34,23.64,15.06,24.96-21.93Z"/>
      </g>
    </g>
  </g>
</svg>