<?xml version="1.0" encoding="UTF-8"?>
<svg id="Layer_1" data-name="Layer 1" xmlns="http://www.w3.org/2000/svg" viewBox="0 0 1920 1080">
  <defs>
    <style>
      .cls-1, .cls-2 {
        stroke-width: 0px;
      }

      .cls-2 {
        fill: #fff;
      }
    </style>
  </defs>
  <path class="cls-1" d="m904,361c-46.22-30.84-66.87-88.11-51-140,15.07-49.26,61.13-87.38,116-87,53.87.38,98.97,37.74,114,86,16.23,52.1-4.74,110.03-51.74,141,70.58,31.67,141.16,63.33,211.74,95,26.29,14.79,37.65,46.73,27,74-11.2,28.66-43.68,44.4-74,35-39.67-16-79.33-32-119-48l78,258c10.15-.02,37.73,1.32,58,21,4.58,4.45,11.31,11.15,14,22,5.08,20.52-8.68,38.12-11,41-16.64,17.66-42.11,38.27-77,48-15.93,4.44-31.65,8.59-49,2-28.07-10.66-38.13-40.98-40-47-18.33-48-36.67-96-55-144-1.62-1.74-11.26-11.8-27-12-15.48-.2-25.29,9.29-27,11-19.33,52.33-38.67,104.67-58,157-11.99,21.39-26.35,29.63-34,33-37.9,16.72-93.82-5.35-133-59-2.21-5.35-9.65-25.13-1-45,10.59-24.32,41.04-39.05,74-33,24.67-83.67,49.33-167.33,74-251-44,17.33-88,34.67-132,52-4.88.48-28.2,2.28-46-14-19.97-18.27-17.78-45.37-17-55,1.89-23.38,13.67-39.53,19-46,72.33-31.67,144.67-63.33,217-95Z"/>
  <path class="cls-2" d="m914.5,286.32c-4.34,7.05,24.85,48.03,59.9,44.73,30.3-2.86,51.78-37.55,46.94-44.73-3.73-5.53-21.15,8.08-54.92,7.99-32.41-.09-49.01-12.71-51.92-7.99Z"/>
  <ellipse class="cls-2" cx="928.5" cy="223.5" rx="13.5" ry="27.5"/>
  <ellipse class="cls-2" cx="1008.5" cy="223.5" rx="13.5" ry="27.5"/>
  <path class="cls-2" d="m904,361c21.67,9,43.33,18,65,27-9,13.84-18,27.67-27,41.51l-38-68.51Z"/>
  <path class="cls-2" d="m1031.26,361c-20.75,9-41.5,18-62.26,27,12,14.67,24,29.33,36,44,8.75-23.67,17.5-47.33,26.26-71Z"/>
</svg>