<?xml version="1.0" encoding="UTF-8"?>
<svg id="Layer_1" data-name="Layer 1" xmlns="http://www.w3.org/2000/svg" viewBox="0 0 189 189">
  <defs>
    <style>
      .cls-1 {
        fill: none;
        stroke: #000;
        stroke-miterlimit: 10;
        stroke-width: 25px;
      }

      .cls-2 {
        stroke-width: 0px;
      }
    </style>
  </defs>
  <circle class="cls-2" cx="94.82" cy="95.37" r="38.46"/>
  <line class="cls-1" x1="94.82" y1="15.34" x2="94.82" y2="43.74"/>
  <circle class="cls-2" cx="94.82" cy="95.37" r="38.46"/>
  <line class="cls-1" x1="43.38" y1="34.06" x2="61.64" y2="55.82"/>
  <circle class="cls-2" cx="94.82" cy="95.37" r="38.46"/>
  <line class="cls-1" x1="16.01" y1="81.47" x2="43.98" y2="86.4"/>
  <circle class="cls-2" cx="94.82" cy="95.37" r="38.46"/>
  <line class="cls-1" x1="25.51" y1="135.39" x2="50.11" y2="121.18"/>
  <circle class="cls-2" cx="94.82" cy="95.37" r="38.46"/>
  <line class="cls-1" x1="67.45" y1="170.58" x2="77.17" y2="143.88"/>
  <circle class="cls-2" cx="94.82" cy="95.37" r="38.46"/>
  <line class="cls-1" x1="122.2" y1="170.58" x2="112.48" y2="143.88"/>
  <circle class="cls-2" cx="94.82" cy="95.37" r="38.46"/>
  <line class="cls-1" x1="164.13" y1="135.39" x2="139.53" y2="121.18"/>
  <circle class="cls-2" cx="94.82" cy="95.37" r="38.46"/>
  <line class="cls-1" x1="173.64" y1="81.47" x2="145.67" y2="86.4"/>
  <line class="cls-1" x1="146.27" y1="34.06" x2="128.01" y2="55.82"/>
</svg>